<svg xmlns="http://www.w3.org/2000/svg" viewBox="0 0 64 64"><defs><style>.cls-1{fill:#e6e6e6;}.cls-2,.cls-5{fill:#d32f3c;}.cls-3{fill:#6d0514;}.cls-4{fill:#f2f2f2;}.cls-5,.cls-6{stroke:#e6e6e6;}.cls-5{stroke-miterlimit:10;}.cls-5,.cls-6,.cls-7{stroke-width:2px;}.cls-6,.cls-7{fill:none;stroke-linejoin:round;}.cls-7{stroke:#505151;}.cls-8{fill:#d6d7d8;}</style></defs><title>barn, garden, gardener, agriculture, farm, </title><g id="Flat"><polygon class="cls-1" points="61 19 58 23 54 19.33 46 12 32 8 18 12 10 19.33 6 23 3 19 10 13.08 16 8 32 3 48 8 54 13.08 61 19" id="id_101" style="fill: rgb(71, 115, 79);"></polygon><polygon class="cls-2" points="54 43 54 61 10 61 10 19.33 18 12 32 8 46 12 54 19.33 54 37 54 43" id="id_102" style="fill: rgb(121, 173, 130);"></polygon><rect class="cls-3" x="27" y="14" width="10" height="12" id="id_103" style="fill: rgb(117, 173, 128);"></rect><rect class="cls-4" x="37" y="15" width="6" height="5" id="id_104" style="fill: rgb(59, 97, 66);"></rect><rect class="cls-1" x="37" y="20" width="6" height="5" id="id_105" style="fill: rgb(58, 97, 65);"></rect><rect class="cls-4" x="21" y="15" width="6" height="5" id="id_106" style="fill: rgb(59, 97, 66);"></rect><rect class="cls-1" x="21" y="20" width="6" height="5" id="id_107" style="fill: rgb(61, 99, 68);"></rect><rect class="cls-5" x="16" y="43" width="16" height="18" id="id_108" style="fill: rgb(128, 178, 136); stroke: rgb(57, 92, 63);"></rect><line class="cls-6" x1="16" y1="43" x2="32" y2="61" id="id_109" style="stroke: rgb(66, 107, 74);"></line><line class="cls-6" x1="32" y1="43" x2="16" y2="61" id="id_110" style="stroke: rgb(63, 102, 70);"></line><rect class="cls-5" x="32" y="43" width="16" height="18" id="id_111" style="fill: rgb(129, 179, 138); stroke: rgb(59, 97, 66);"></rect><line class="cls-6" x1="32" y1="43" x2="48" y2="61" id="id_112" style="stroke: rgb(59, 97, 66);"></line><line class="cls-6" x1="48" y1="43" x2="32" y2="61" id="id_113" style="stroke: rgb(63, 99, 69);"></line><rect class="cls-4" x="14" y="30" width="9" height="5" id="id_114" style="fill: rgb(56, 94, 63);"></rect><rect class="cls-4" x="27" y="30" width="10" height="5" id="id_115" style="fill: rgb(53, 89, 60);"></rect><rect class="cls-4" x="41" y="30" width="9" height="5" id="id_116" style="fill: rgb(50, 84, 57);"></rect><line class="cls-7" x1="2" y1="61" x2="62" y2="61" id="id_117" style="stroke: rgb(61, 94, 67);"></line><rect class="cls-8" x="14" y="39" width="36" height="4" id="id_118" style="fill: rgb(63, 97, 69);"></rect></g></svg>