<svg version="1.1" id="Layer_1_6_" xmlns="http://www.w3.org/2000/svg" xmlns:xlink="http://www.w3.org/1999/xlink" x="0px" y="0px" viewBox="0 0 48 48" style="enable-background:new 0 0 48 48;" xml:space="preserve">
<style type="text/css">
	.st0{fill:#FC5696;}
	.st1{fill:#74CC5E;}
	.st2{fill:#9DE8FC;}
	.st3{fill:#828282;}
	.st4{fill:#CCCCCC;}
	.st5{fill:#EFEFEF;}
	.st6{fill:#A5A5A5;}
	.st7{fill:#F2D6AD;}
	.st8{fill:#FCF6F2;}
	.st9{fill:#5E5E5E;}
	.st10{fill:#919191;}
	.st11{fill:#B5B5B5;}
	.st12{fill:#D4F2F9;}
	.st13{fill:#5A99CC;}
	.st14{fill:#F99F10;}
	.st15{fill:#BC9C73;}
	.st16{fill:#4C9933;}
	.st17{fill:#F9C900;}
	.st18{fill:#D6D6D6;}
	.st19{fill:#727272;}
	.st20{fill:#FC92C3;}
	.st21{fill:#CCB9AE;}
	.st22{fill:#E19214;}
	.st23{fill:#E3B807;}
	.st24{fill:#A8EA92;}
	.st25{fill:#7E44B2;}
	.st26{fill:#905CC6;}
	.st27{fill:#73B557;}
	.st28{fill:#8BCBEF;}
	.st29{fill:#4588B5;}
	.st30{fill:#6DB3D1;}
	.st31{fill:#EA478A;}
	.st32{fill:#E87EB3;}
	.st33{fill:#FFFFFF;}
</style>
<path class="st14" d="M23,27L12.463,44.562c-0.212,0.354,0.256,0.719,0.548,0.428L37.94,20.06c0.34-0.34,0.051-0.916-0.424-0.849
	L25,21L35.537,3.438c0.212-0.354-0.256-0.719-0.548-0.428L10.061,27.939c-0.34,0.34-0.051,0.916,0.424,0.849L23,27z" id="id_101" style="fill: rgb(49, 109, 123);"></path>
<path class="st17" d="M27.333,20.667L25,21L35.537,3.438c0.212-0.354-0.256-0.719-0.548-0.428L10.061,27.939
	c-0.34,0.34-0.051,0.916,0.424,0.849l10.182-1.454L27.333,20.667z" id="id_102" style="fill: rgb(100, 175, 192);"></path>
</svg>