<?xml version="1.0" encoding="UTF-8" standalone="no"?> <svg width="64" height="64" viewBox="0 0 64 64" fill="none" xmlns="http://www.w3.org/2000/svg">
<path d="M32 62C26.0666 62 20.2664 60.2405 15.3329 56.9441C10.3994 53.6477 6.55424 48.9623 4.28361 43.4805C2.01299 37.9987 1.41889 31.9667 2.57644 26.1473C3.734 20.3279 6.59122 14.9824 10.7868 10.7868C14.9824 6.59123 20.3279 3.73401 26.1473 2.57646C31.9667 1.4189 37.9987 2.013 43.4805 4.28363C48.9623 6.55426 53.6476 10.3994 56.9441 15.3329C60.2405 20.2664 62 26.0666 62 32C61.991 39.9537 58.8274 47.5791 53.2033 53.2033C47.5791 58.8274 39.9537 61.991 32 62V62ZM32 4.00001C26.4621 4.00001 21.0486 5.64218 16.444 8.71886C11.8395 11.7955 8.25063 16.1685 6.13137 21.2849C4.01212 26.4012 3.45763 32.0311 4.53801 37.4625C5.6184 42.894 8.28514 47.8831 12.201 51.799C16.1169 55.7149 21.106 58.3816 26.5375 59.462C31.9689 60.5424 37.5988 59.9879 42.7151 57.8686C47.8315 55.7494 52.2045 52.1606 55.2812 47.556C58.3578 42.9514 60 37.5379 60 32C59.9915 24.5766 57.0388 17.4596 51.7896 12.2104C46.5405 6.96119 39.4235 4.00848 32 4.00001V4.00001Z" fill="black"/>
<path d="M32 6C26.8577 6 21.8309 7.52487 17.5552 10.3818C13.2795 13.2387 9.94701 17.2994 7.97913 22.0502C6.01125 26.8011 5.49637 32.0288 6.49958 37.0723C7.5028 42.1159 9.97906 46.7486 13.6152 50.3848C17.2514 54.0209 21.8841 56.4972 26.9277 57.5004C31.9712 58.5036 37.1989 57.9887 41.9498 56.0209C46.7006 54.053 50.7613 50.7205 53.6182 46.4448C56.4751 42.1691 58 37.1423 58 32C57.9923 25.1067 55.2506 18.498 50.3763 13.6237C45.502 8.74942 38.8933 6.00768 32 6V6ZM29 13.96C29 13.1644 29.3161 12.4013 29.8787 11.8387C30.4413 11.2761 31.2044 10.96 32 10.96C32.7956 10.96 33.5587 11.2761 34.1213 11.8387C34.6839 12.4013 35 13.1644 35 13.96V33.04C34.9989 33.8247 34.6867 34.577 34.1319 35.1319C33.577 35.6867 32.8247 35.9989 32.04 36H31.96C31.1753 35.9989 30.423 35.6867 29.8681 35.1319C29.3133 34.577 29.0011 33.8247 29 33.04V13.96ZM44.66 46.16C42.7113 47.907 40.4225 49.2324 37.9373 50.053C35.4521 50.8735 32.8241 51.1715 30.2182 50.9283C27.6124 50.6851 25.0849 49.9059 22.7945 48.6396C20.5041 47.3733 18.5001 45.6473 16.9083 43.5698C15.3166 41.4923 14.1714 39.1083 13.5446 36.5672C12.9179 34.0262 12.8232 31.3831 13.2663 28.8037C13.7095 26.2243 14.681 23.7644 16.12 21.5783C17.5589 19.3922 19.4341 17.527 21.628 16.1C21.9857 15.8674 22.3886 15.7132 22.8102 15.6477C23.2319 15.5822 23.6626 15.6068 24.074 15.72C24.4757 15.8313 24.8491 16.0266 25.1698 16.293C25.4904 16.5593 25.7509 16.8906 25.934 17.265C26.2657 17.928 26.3415 18.69 26.1469 19.4054C25.9523 20.1208 25.5009 20.7394 24.879 21.143C22.5377 22.6769 20.7539 24.9255 19.793 27.5544C18.8321 30.1834 18.7454 33.0522 19.5458 35.7344C20.3461 38.4166 21.9908 40.7688 24.2352 42.4413C26.4797 44.1138 29.204 45.0172 32.003 45.0172C34.802 45.0172 37.5263 44.1138 39.7708 42.4413C42.0152 40.7688 43.6599 38.4166 44.4602 35.7344C45.2606 33.0522 45.1739 30.1834 44.213 27.5544C43.2521 24.9255 41.4683 22.6769 39.127 21.143C38.4573 20.7131 37.9859 20.0348 37.8163 19.2572C37.6468 18.4797 37.7931 17.6667 38.223 16.997C38.6529 16.3273 39.3313 15.8559 40.1088 15.6863C40.8863 15.5168 41.6993 15.6631 42.369 16.093C44.8141 17.6829 46.8597 19.8151 48.3471 22.3239C49.8344 24.8327 50.7234 27.6506 50.945 30.5588C51.1667 33.4669 50.7149 36.387 49.6249 39.0922C48.5349 41.7974 46.8359 44.2149 44.66 46.157V46.16Z" fill="black"/>
</svg>
