<svg xmlns="http://www.w3.org/2000/svg" viewBox="0 0 64 64"><g id="Fill"><path d="M20,38H17v8h6.882A1.808,1.808,0,0,1,25.5,47h0a1.808,1.808,0,0,0,1.618,1H38a6,6,0,0,1,6-6h2V34H40.118A1.808,1.808,0,0,1,38.5,33h0a1.808,1.808,0,0,0-1.618-1H26A6,6,0,0,1,20,38Z" style="fill: rgb(49, 109, 123);" id="id_101"></path><rect x="26" y="24" width="12" height="4" style="fill: rgb(49, 109, 123);" id="id_102"></rect><rect x="29" y="28" width="6" height="4" style="fill: rgb(100, 175, 192);" id="id_103"></rect><rect x="30" y="20" width="4" height="4" style="fill: rgb(49, 109, 123);" id="id_104"></rect><rect x="20" y="15" width="24" height="5" rx="2.5" ry="2.5" style="fill: rgb(100, 175, 192);" id="id_105"></rect><rect x="46" y="29" width="4" height="18" style="fill: rgb(100, 175, 192);" id="id_106"></rect><rect x="50" y="29" width="4" height="18" style="fill: rgb(49, 109, 123);" id="id_107"></rect><rect x="54" y="34" width="7" height="8" style="fill: rgb(100, 175, 192);" id="id_108"></rect><rect x="13" y="33" width="4" height="18" transform="translate(30 84) rotate(180)" style="fill: rgb(100, 175, 192);" id="id_109"></rect><rect x="9" y="33" width="4" height="18" transform="translate(22 84) rotate(180)" style="fill: rgb(49, 109, 123);" id="id_110"></rect><rect x="3" y="38" width="6" height="8" transform="translate(12 84) rotate(180)" style="fill: rgb(100, 175, 192);" id="id_111"></rect><rect x="28" y="35" width="9" height="2" style="fill: rgb(100, 175, 192);" id="id_112"></rect><rect x="28" y="39" width="6" height="2" style="fill: rgb(100, 175, 192);" id="id_113"></rect><rect x="34" y="43" width="2" height="2" style="fill: rgb(100, 175, 192);" id="id_114"></rect></g></svg>