<svg width="64" height="64" viewBox="0 0 64 64" fill="none" xmlns="http://www.w3.org/2000/svg">
<path d="M17 58H5L7 24H15L17 58Z" fill="#9c8c6d" id="id_101"></path>
<path d="M39 58H29V37L39 32V58Z" fill="#9e8e6e" id="id_102"></path>
<path d="M49 58H39V37L49 32V58Z" fill="#B7B7A4" id="id_103"></path>
<path d="M59 58H49V37L59 32V58Z" fill="#9e8e6e" id="id_104"></path>
<path d="M11 58V34H29V58" fill="#B7B7A4" id="id_105"></path>
<path d="M18 38H14V42H18V38Z" fill="#786d57" id="id_106"></path>
<path d="M26 38H22V42H26V38Z" fill="#796e5b" id="id_107"></path>
<path d="M36 44H32V48H36V44Z" fill="#756952" id="id_108"></path>
<path d="M46 44H42V48H46V44Z" fill="#7a6f58" id="id_109"></path>
<path d="M56 44H52V48H56V44Z" fill="#786c54" id="id_110"></path>
<path d="M18 50H14V54H18V50Z" fill="#7a6f59" id="id_111"></path>
<path d="M26 50H22V54H26V50Z" fill="#736853" id="id_112"></path>
<path d="M62 58H2V60H62V58Z" fill="#8a7c60" id="id_113"></path>
<path d="M13 24V18.22C13.3126 17.9404 13.5631 17.5984 13.7353 17.216C13.9076 16.8336 13.9977 16.4194 14 16C13.9994 15.5786 13.9073 15.1623 13.73 14.78C14.139 14.9202 14.5677 14.9944 15 15C15.7463 14.9978 16.4771 14.7868 17.1097 14.3909C17.7423 13.9951 18.2516 13.4302 18.58 12.76C18.8586 13.1403 19.2229 13.4495 19.6434 13.6627C20.0638 13.8759 20.5286 13.987 21 13.987C21.4714 13.987 21.9362 13.8759 22.3566 13.6627C22.7771 13.4495 23.1414 13.1403 23.42 12.76C23.7335 13.4038 24.214 13.9516 24.8115 14.3463C25.4089 14.741 26.1014 14.9681 26.8166 15.0038C27.5317 15.0396 28.2434 14.8827 28.8772 14.5496C29.5111 14.2165 30.0439 13.7193 30.42 13.11C30.8389 14.2178 31.5764 15.1769 32.5394 15.8663C33.5024 16.5558 34.648 16.9448 35.8317 16.9844C37.0154 17.0239 38.1844 16.7123 39.1913 16.0887C40.1982 15.465 40.998 14.5574 41.49 13.48C42.0743 15.0081 43.1754 16.2833 44.602 17.0841C46.0286 17.8849 47.6907 18.1607 49.2995 17.8636C50.9083 17.5665 52.3622 16.7153 53.4088 15.4578C54.4553 14.2003 55.0283 12.616 55.0283 10.98C55.0283 9.34399 54.4553 7.75965 53.4088 6.50216C52.3622 5.24467 50.9083 4.39347 49.2995 4.09638C47.6907 3.7993 46.0286 4.0751 44.602 4.8759C43.1754 5.67669 42.0743 6.95188 41.49 8.48C40.998 7.40263 40.1982 6.49496 39.1913 5.87135C38.1844 5.24773 37.0154 4.93608 35.8317 4.97564C34.648 5.01521 33.5024 5.40422 32.5394 6.09368C31.5764 6.78313 30.8389 7.74218 30.42 8.85C30.0439 8.24069 29.5111 7.74352 28.8772 7.4104C28.2434 7.07727 27.5317 6.9204 26.8166 6.95615C26.1014 6.99191 25.4089 7.21899 24.8115 7.61368C24.214 8.00838 23.7335 8.55621 23.42 9.2C23.1414 8.81973 22.7771 8.51047 22.3566 8.29729C21.9362 8.08411 21.4714 7.97302 21 7.97302C20.5286 7.97302 20.0638 8.08411 19.6434 8.29729C19.2229 8.51047 18.8586 8.81973 18.58 9.2C18.1773 8.39192 17.513 7.74385 16.6952 7.3612C15.8774 6.97855 14.9542 6.88383 14.0758 7.09243C13.1974 7.30103 12.4153 7.80069 11.8569 8.51015C11.2984 9.21961 10.9964 10.0971 11 11C11.0005 11.7283 11.2048 12.4419 11.59 13.06C11.3959 13.0198 11.1982 12.9996 11 13C10.396 13.0036 9.80712 13.1894 9.31045 13.5331C8.81379 13.8769 8.43245 14.3626 8.21634 14.9266C8.00024 15.4906 7.95942 16.1068 8.09925 16.6944C8.23907 17.282 8.55301 17.8137 9 18.22V24" fill="#B7B7A4" id="id_114"></path>
</svg>