<?xml version="1.0" encoding="UTF-8"?>
<!DOCTYPE svg PUBLIC "-//W3C//DTD SVG 1.1//EN" "http://www.w3.org/Graphics/SVG/1.1/DTD/svg11.dtd">
<!-- Creator: CorelDRAW -->
<svg xmlns="http://www.w3.org/2000/svg" xml:space="preserve" width="1.70666in" height="1.70666in" version="1.1" style="shape-rendering:geometricPrecision; text-rendering:geometricPrecision; image-rendering:optimizeQuality; fill-rule:evenodd; clip-rule:evenodd"
viewBox="0 0 1706.66 1706.66"
 xmlns:xlink="http://www.w3.org/1999/xlink"
 xmlns:xodm="http://www.corel.com/coreldraw/odm/2003">
 <defs>
  <style type="text/css">
   <![CDATA[
    .fil1 {fill:#4A5254}
    .fil0 {fill:#5C6365}
    .fil4 {fill:#7BCCE0}
    .fil2 {fill:#89D3E5}
    .fil5 {fill:white}
    .fil3 {fill:#4A5254;fill-rule:nonzero}
   ]]>
  </style>
 </defs>
 <g id="Layer_x0020_1">
  <metadata id="CorelCorpID_0Corel-Layer"/>
  <g id="_2219933006176">
   <g>
    <path class="fil0" d="M1068.63 1547.84l-430.64 0c-11.04,0 -20,-8.97 -20,-20l0 -234.61c0,-11.04 8.96,-20 20,-20l430.64 -0c11.04,0 20,8.97 20,20l0 234.61c0,11.03 -8.95,20 -20,20z"/>
    <path class="fil1" d="M1363.3 1706.5l-1019.98 0c-21.99,0 -20,-22.39 -20,-33.61 0,-91.01 74.04,-165.07 165.05,-165.07l729.85 0c91.01,0 165.06,74.06 165.06,165.07 0,11.22 2,33.61 -20,33.61z"/>
    <path class="fil1" d="M1539.34 1313.23l-1372.04 0c-91.01,0 -165.05,-74.06 -165.05,-165.07l0 -982.96c0,-91.01 74.04,-165.05 165.05,-165.05l1372.06 0c91.01,0 165.07,74.04 165.07,165.05l0 982.97c-0.02,91 -74.07,165.05 -165.08,165.05z"/>
    <path class="fil2" d="M75.5 1059.81l1555.66 0 0 -878.82c0,-66.13 -53.8,-119.93 -119.93,-119.93l-1315.8 0c-66.13,0 -119.93,53.8 -119.93,119.93l0 878.82z"/>
    <path class="fil0" d="M1704.42 1059.81l-40.01 0 -1622.18 0 -39.99 0 0 88.35c0,91.01 74.04,165.07 165.05,165.07l450.7 0 39.99 0 390.65 0 39.99 0 450.71 0c91.01,0 165.07,-74.06 165.08,-165.05l0 -88.37z"/>
    <path class="fil3" d="M778.96 1166.52c-26.33,0 -26.33,40 0,40l148.74 0c26.33,0 26.33,-40 0,-40l-148.74 0z"/>
    <path class="fil4" d="M75.5 1059.81l1522.89 -961.13c-21.88,-23.15 -52.86,-37.63 -87.16,-37.63l-1315.8 0c-66.13,0 -119.93,53.8 -119.93,119.93l0 878.82z"/>
   </g>
   <path class="fil5" d="M1162.91 811.75c-32.64,0 -266.1,-200.97 -609.2,-2.68 -22.8,13.17 -42.78,-21.47 -20,-34.63 215.06,-124.15 424.14,-124.15 639.2,0 17.69,10.2 10.29,37.31 -10,37.31z"/>
   <path class="fil5" d="M675.97 508.56c-60.75,0 -110.17,-49.43 -110.17,-110.17 0,-60.76 49.43,-110.17 110.17,-110.17 60.76,0 110.18,49.42 110.18,110.17 0,60.76 -49.42,110.17 -110.18,110.17z"/>
   <path class="fil5" d="M1030.66 508.56c-60.76,0 -110.19,-49.43 -110.19,-110.17 0,-60.76 49.43,-110.17 110.19,-110.17 60.76,0 110.19,49.42 110.19,110.17 0,60.76 -49.44,110.17 -110.19,110.17z"/>
  </g>
 </g>
</svg>
