<svg xmlns="http://www.w3.org/2000/svg" xml:space="preserve" width="512px" height="512px" version="1.1" style="shape-rendering:geometricPrecision; text-rendering:geometricPrecision; image-rendering:optimizeQuality; fill-rule:evenodd; clip-rule:evenodd" viewBox="0 0 512 512" xmlns:xlink="http://www.w3.org/1999/xlink">
 <defs>
  <style type="text/css">
   
    .fil6 {fill:black}
    .fil10 {fill:#71C139}
    .fil7 {fill:#7ED63F}
    .fil8 {fill:#A35420}
    .fil1 {fill:#B17A4B}
    .fil5 {fill:#B55D24}
    .fil0 {fill:#C58753}
    .fil2 {fill:#CF4200}
    .fil9 {fill:#D9F2F2}
    .fil4 {fill:#F3A766}
    .fil3 {fill:#FF5100}
   
  </style>
 </defs>
 <g id="Layer_x0020_1">
  <metadata id="CorelCorpID_0Corel-Layer"></metadata>
  <g id="_454991400">
   <path class="fil0" d="M85 481l-38 0c-2,0 -4,0 -5,-2 -1,-1 -2,-3 -2,-5l1 -137c0,-2 1,-4 2,-6l38 -27c3,-2 7,-1 9,2 3,3 2,8 -1,10l-4 151c4,0 7,4 7,8 0,4 -3,6 -7,6z" id="id_101" style="fill: rgb(130, 91, 82);"></path>
   <path class="fil1" d="M71 311l10 -7c3,-2 7,-1 9,2 3,3 2,8 -1,10l-4 151c4,0 7,3 7,7l-6 0c0,4 -3,7 -8,7 -4,0 -7,-3 -7,-7l0 -163z" id="id_102" style="fill: rgb(125, 83, 74);"></path>
   <path class="fil0" d="M465 481l-38 0c-5,0 -8,-3 -8,-7 0,-4 3,-8 8,-8l-4 -148c-3,-2 -5,-6 -3,-10 2,-3 7,-5 10,-3l38 21c3,1 4,4 4,6l0 141c0,3 -1,4 -2,5 -1,3 -3,3 -5,3z" id="id_103" style="fill: rgb(112, 72, 63);"></path>
   <path class="fil1" d="M419 474c0,-4 3,-8 8,-8l-4 -148c-3,-2 -5,-6 -3,-10 2,-3 7,-5 10,-3l9 5 0 164c1,4 -2,7 -7,7 -4,0 -7,-3 -7,-7l-6 0z" id="id_104" style="fill: rgb(120, 79, 70);"></path>
   <path class="fil2" d="M131 147c-3,0 -7,-3 -7,-7l-4 -128c0,-4 3,-7 7,-8l53 -4c2,0 4,1 5,2 2,1 3,3 3,5l2 82c0,4 -3,7 -7,7 -4,0 -7,-3 -7,-7l-37 50c0,4 -3,8 -8,8 1,0 1,0 0,0z" id="id_105" style="fill: rgb(125, 86, 77);"></path>
   <path class="fil3" d="M456 221c-2,0 -4,-1 -5,-2l-195 -190 -196 190c-3,2 -7,2 -10,0 -3,-3 -3,-8 0,-11l201 -194c3,-3 7,-3 10,0l200 194c3,3 3,8 0,11 -1,1 -3,2 -5,2z" id="id_106" style="fill: rgb(143, 107, 99);"></path>
   <path class="fil4" d="M427 481c-5,0 -8,-3 -8,-7l-327 0c0,4 -4,7 -8,7 -4,0 -6,-3 -6,-7l0 -248c0,-2 0,-4 2,-5l170 -165c3,-3 8,-3 10,0l171 165c1,1 2,3 2,5l0 248c1,4 -2,7 -6,7z" id="id_107" style="fill: rgb(196, 118, 100);"></path>
   <path class="fil5" d="M325 481c-4,0 -135,0 -139,0 -4,0 -7,-3 -7,-7l0 -149c0,-17 14,-30 31,-30l91 0c17,0 31,13 31,30l0 149c1,4 -3,7 -7,7z" id="id_108" style="fill: rgb(165, 102, 90);"></path>
   <path class="fil6" d="M296 395l-22 0c-4,0 -7,-3 -7,-7 0,-4 3,-8 7,-8l22 0c4,0 8,4 8,8 0,4 -4,7 -8,7z" id="id_109" style="fill: rgb(117, 67, 56);"></path>
   <path class="fil0" d="M256 252c-24,0 -44,-19 -44,-44 0,-24 20,-44 44,-44 24,0 43,20 43,44 0,25 -19,44 -43,44z" id="id_110" style="fill: rgb(143, 78, 63);"></path>
   <path class="fil7" d="M499 512l-486 0c-4,0 -8,-4 -8,-8l0 -30c0,-4 4,-8 8,-8l486 0c4,0 8,4 8,8l0 30c-1,4 -4,8 -8,8z" id="id_111" style="fill: rgb(153, 73, 55);"></path>
   <path class="fil8" d="M222 308l92 0c5,0 11,2 15,4 -5,-10 -15,-17 -28,-17l-91 0c-17,0 -31,13 -31,30l0 141 13 0 0 -127c0,-17 13,-31 30,-31z" id="id_112" style="fill: rgb(255, 255, 255);"></path>
   <path class="fil9" d="M256 181c-15,0 -28,12 -28,28 0,15 12,27 28,27 15,0 27,-12 27,-27 0,-16 -12,-28 -27,-28z" id="id_113" style="fill: rgb(255, 255, 255);"></path>
   <path class="fil10" d="M507 504l0 -30c0,-4 -4,-8 -8,-8l-27 0 -39 0 -6 0 -4 0 -91 0 -140 0 -13 0 -94 0 -7 0 -38 0 -27 0c-4,0 -8,4 -8,8l35 0 38 0 14 0 87 0 153 0 87 0 14 0 39 0 19 0c4,0 7,3 7,7l0 31c0,0 0,0 0,0l1 0c4,0 7,-4 8,-8z" id="id_114" style="fill: rgb(255, 255, 255);"></path>
  </g>
 </g>
</svg>